# xmcd
#
# Track frame offsets:
#	150
#	18075
#	31508
#	53739
#	70144
#	84985
#	101172
#	105794
#	121713
#	135645
#	151240
#	171471
#
# Disc length: 2513 seconds
#
# Revision: 1
# Processed by: cddbd v1.5.2PL0 Copyright (c) Steve Scherf et al.
# Submitted via: audiograbber 1.83.01
#
DISCID=8309cf0c
DTITLE=Orville Peck - Pony
DYEAR=2019
DGENRE=Country
TTITLE0=Dead Of Night
TTITLE1=Winds Change
TTITLE2=Turn To Hate
TTITLE3=Buffalo Run
TTITLE4=Queen Of The Rodeo
TTITLE5=Kansas (Remembers Me Now)
TTITLE6=Old River
TTITLE7=Big Sky
TTITLE8=Roses Are Falling
TTITLE9=Take You Back (The Iron Hoof Cattle Call)
TTITLE10=Hope To Die
TTITLE11=Nothing Fades Like The Light
EXTD=
EXTT0=
EXTT1=
EXTT2=
EXTT3=
EXTT4=
EXTT5=
EXTT6=
EXTT7=
EXTT8=
EXTT9=
EXTT10=
EXTT11=
PLAYORDER=
